<?xml version="1.0" encoding="utf-8"?>
<!-- Generator: Adobe Illustrator 25.0.0, SVG Export Plug-In . SVG Version: 6.00 Build 0)  -->
<svg version="1.1" id="Layer_1" xmlns="http://www.w3.org/2000/svg" xmlns:xlink="http://www.w3.org/1999/xlink" x="0px" y="0px"
	 viewBox="0 0 623.5 605.2" style="enable-background:new 0 0 623.5 605.2;" xml:space="preserve">
<style type="text/css">
	.st0{fill:#F2F2F2;}
	.st1{fill:#FFFFFF;}
	.st2{fill:#CCCCCC;}
	.st3{fill:#55AA02;}
	.st4{fill:#FFB6B6;}
	.st5{fill:#2F2E41;}
	.st6{fill:#E4E4E4;}
	.st7{opacity:0.1;enable-background:new    ;}
	.st8{fill:#CACACA;}
</style>
<g>
	<path class="st0" d="M464.7,603.2c-0.6,0.7-1.3,1.4-2,2h-77.5c-0.6-0.7-1.3-1.3-1.9-2c0,0-0.1-0.1-0.1-0.1
		c-8.4-9.3-13.7-22.9-17-37.2c-0.2-0.9-0.4-1.7-0.6-2.6c-0.9-4-1.6-8.1-2.1-12.1c-0.1-0.7-0.2-1.4-0.3-2.1
		c-0.8-5.8-1.3-11.5-1.6-16.8c0-0.7-0.1-1.4-0.1-2c-0.6-10.6-0.6-21.3,0-32c0,0,0.1,0,0.3,0c0.6,0,1.9,0.1,4,0.2
		c5.5,0.3,16,1.2,28.3,3.2c0.7,0.1,1.4,0.2,2,0.3c10.4,1.7,20.7,4.2,30.7,7.4c0.6,0.2,1.2,0.4,1.9,0.6l0,0l7.7,38.7l3.2-34.4
		c2.5,1.1,5,2.4,7.4,3.7c0.7,0.4,1.3,0.7,1.9,1.1c5.4,3.1,10.3,7,14.6,11.5C488.7,558.7,483.3,583.8,464.7,603.2z"/>
	<path class="st1" d="M432.3,554.2l1.3,1.5c15.5,17.4,24.8,33.5,27.7,48.2c0,0.2,0.1,0.4,0.1,0.6l-1,0.2l-1,0.2
		c-2.9-16-13.8-32.5-27.3-47.7c-0.4-0.5-0.9-1-1.3-1.5c-5.8-6.4-12-12.5-18.3-18.2c-0.5-0.4-1-0.9-1.5-1.3
		c-8.3-7.5-16.7-14.3-24.2-20c-0.5-0.4-1.1-0.8-1.6-1.2c-12.7-9.6-22.6-16-24.8-17.4c-0.3-0.2-0.4-0.3-0.4-0.3l0.5-0.8l0,0l0.5-0.8
		c0,0,0.5,0.3,1.5,0.9c3.4,2.2,12.6,8.3,24.1,16.9c0.5,0.4,1,0.8,1.6,1.2c6.1,4.6,12.7,9.9,19.5,15.8c1.7,1.5,3.3,2.9,4.9,4.4
		c0.5,0.4,1,0.9,1.5,1.3C420.8,542.2,426.9,548.3,432.3,554.2z"/>
	<path class="st1" d="M394.6,500c-0.2,0.6-0.5,1.1-0.7,1.6c-1.9,4.2-4.4,8.1-7.4,11.7c-0.4,0.5-0.9,1-1.3,1.5c-1.2,1.4-2.6,2.7-4,4
		c-5.7,5.2-12.5,9.1-19.9,11.4c-0.2,0.1-0.5,0.2-0.7,0.2c0,0.7,0.1,1.3,0.1,2c0.2-0.1,0.5-0.1,0.7-0.2c7.8-2.4,15-6.4,21.1-11.9
		c1.5-1.3,2.9-2.8,4.2-4.2c0.5-0.5,0.9-1,1.3-1.5c3.2-3.8,5.8-8,7.8-12.5c0.2-0.5,0.5-1.1,0.7-1.6C396,500.3,395.3,500.2,394.6,500z
		"/>
	<path class="st1" d="M427,508c-0.1,0.5-0.2,1-0.3,1.5c-2.3,9.6-7.2,18.3-14.2,25.2c-0.5,0.5-1,1-1.5,1.4c-0.1,0.1-0.3,0.3-0.5,0.4
		c-12.9,11.6-30.5,16.3-47.4,12.5c-0.2,0-0.4-0.1-0.6-0.1c0.1,0.7,0.2,1.4,0.3,2.1c0.2,0,0.4,0.1,0.6,0.1
		c17.3,3.6,35.3-1.3,48.5-13.2c0.2-0.2,0.4-0.4,0.6-0.6c0.5-0.5,1-1,1.5-1.4c7.1-7.1,12.2-16.1,14.6-25.9c0.1-0.5,0.2-1,0.4-1.5
		C428.3,508.4,427.7,508.2,427,508z"/>
	<path class="st1" d="M446.9,516.7c0,0.5,0,1,0,1.4c-0.1,13.4-5.4,26.3-14.6,36.1c-0.5,0.5-1,1-1.5,1.5c-0.5,0.5-1.1,1-1.6,1.5
		c-17.6,15.8-43.4,18.3-63.6,6.1c-0.2-0.1-0.3-0.2-0.5-0.3c0.2,0.9,0.4,1.8,0.6,2.7c0.2,0.1,0.3,0.2,0.5,0.2
		c20.8,11.6,46.7,8.7,64.4-7.3c0.6-0.5,1.1-1,1.6-1.5c0.5-0.5,1-1,1.5-1.5c9.4-9.9,14.8-22.8,15.2-36.4c0-0.5,0-0.9,0-1.4
		C448.2,517.4,447.5,517,446.9,516.7z"/>
	<path class="st1" d="M275.1,146.7H125.7c-2.6,0-4.7-2.1-4.7-4.7V28.6c0-2.6,2.1-4.7,4.7-4.7H309c2.6,0,4.7,2.1,4.7,4.7V108
		C313.7,129.4,296.4,146.7,275.1,146.7z"/>
	<path class="st2" d="M275.1,147.1H125.7c-2.8,0-5.1-2.3-5.1-5.1V28.6c0-2.8,2.3-5.1,5.1-5.1H309c2.8,0,5.1,2.3,5.1,5.1V108
		C314.1,129.6,296.6,147.1,275.1,147.1z M125.7,25.2c-1.9,0-3.4,1.5-3.4,3.4V142c0,1.9,1.5,3.4,3.4,3.4h149.4
		c20.6,0,37.4-16.8,37.4-37.4V28.6c0-1.9-1.5-3.4-3.4-3.4H125.7z"/>
	<path class="st2" d="M272.8,62.2H161.9c-2.1,0-3.8-1.7-3.8-3.8c0-2.1,1.7-3.8,3.8-3.8h110.9c2.1,0,3.8,1.7,3.8,3.8
		C276.6,60.5,274.9,62.2,272.8,62.2z"/>
	<path class="st2" d="M272.8,88.7H161.9c-2.1,0-3.8-1.7-3.8-3.8c0-2.1,1.7-3.8,3.8-3.8h110.9c2.1,0,3.8,1.7,3.8,3.8
		C276.6,86.9,274.9,88.6,272.8,88.7C272.8,88.7,272.8,88.7,272.8,88.7z"/>
	<path class="st2" d="M272.8,115.8H161.9c-2.1,0-3.8-1.7-3.8-3.8c0-2.1,1.7-3.8,3.8-3.8h110.9c2.1,0,3.8,1.7,3.8,3.8
		C276.6,114.1,274.9,115.8,272.8,115.8C272.8,115.8,272.8,115.8,272.8,115.8z"/>
	<circle class="st3" cx="307.7" cy="28.9" r="22.9"/>
	<path class="st1" d="M304.5,40.8c-0.8,0-1.6-0.4-2-1l-6.3-8.3c-0.8-1.1-0.6-2.7,0.5-3.6c1.1-0.8,2.7-0.6,3.6,0.5l0,0l4.1,5.5
		l10.5-15.8c0.8-1.2,2.4-1.5,3.5-0.7c1.2,0.8,1.5,2.4,0.7,3.5l-12.5,18.8C306.2,40.4,305.4,40.8,304.5,40.8
		C304.6,40.8,304.6,40.8,304.5,40.8z"/>
	<path class="st1" d="M219.9,245.2H70.5c-21.3,0-38.6-17.3-38.7-38.7v-79.5c0-2.6,2.1-4.7,4.7-4.7h183.4c2.6,0,4.7,2.1,4.7,4.7
		v113.4C224.6,243.1,222.5,245.2,219.9,245.2z"/>
	<path class="st2" d="M219.9,245.7H70.5c-21.6,0-39.1-17.5-39.1-39.1v-79.5c0-2.8,2.3-5.1,5.1-5.1h183.4c2.8,0,5.1,2.3,5.1,5.1
		v113.4C225,243.4,222.7,245.7,219.9,245.7z M36.6,123.7c-1.9,0-3.4,1.5-3.4,3.4v79.5c0,20.6,16.8,37.4,37.4,37.4h149.4
		c1.9,0,3.4-1.5,3.4-3.4V127.1c0-1.9-1.5-3.4-3.4-3.4H36.6z"/>
	<path class="st2" d="M183.7,160.7H72.8c-2.1,0-3.8-1.7-3.8-3.8c0-2.1,1.7-3.8,3.8-3.8c0,0,0,0,0,0h110.9c2.1,0,3.8,1.7,3.8,3.8
		C187.5,159,185.8,160.7,183.7,160.7C183.7,160.7,183.7,160.7,183.7,160.7z"/>
	<path class="st2" d="M183.7,187.2H72.8c-2.1,0-3.8-1.7-3.8-3.8c0-2.1,1.7-3.8,3.8-3.8h110.9c2.1,0,3.8,1.7,3.8,3.8
		S185.8,187.2,183.7,187.2L183.7,187.2z"/>
	<path class="st2" d="M183.7,214.4H72.8c-2.1,0-3.8-1.7-3.8-3.8c0-2.1,1.7-3.8,3.8-3.8h110.9c2.1,0,3.8,1.7,3.8,3.8
		S185.8,214.4,183.7,214.4L183.7,214.4z"/>
	<circle class="st3" cx="220.1" cy="128.3" r="22.9"/>
	<path class="st1" d="M217,140.3c-0.8,0-1.6-0.4-2-1l-6.3-8.3c-0.8-1.1-0.6-2.7,0.5-3.6c1.1-0.8,2.7-0.6,3.6,0.5l4.1,5.5l10.5-15.8
		c0.8-1.2,2.4-1.5,3.5-0.7c1.2,0.8,1.5,2.4,0.7,3.5l0,0l-12.5,18.8C218.7,139.8,217.9,140.3,217,140.3
		C217,140.3,217,140.3,217,140.3z"/>
	<path class="st1" d="M406,351H197c-21.3,0-38.6-17.3-38.7-38.7V195.4c0-3.3,2.7-6,6-6H406c3.3,0,6,2.7,6,6v149.5
		C412.1,348.3,409.4,351,406,351z"/>
	<path class="st2" d="M406,351.4H197c-21.6,0-39.1-17.5-39.1-39.1V195.4c0-3.6,2.9-6.5,6.5-6.5H406c3.6,0,6.5,2.9,6.5,6.5v149.5
		C412.5,348.5,409.6,351.4,406,351.4z M164.4,190.7c-2.6,0-4.8,2.1-4.8,4.8v116.9c0,20.6,16.8,37.4,37.4,37.4h209
		c2.6,0,4.8-2.1,4.8-4.8V195.4c0-2.6-2.1-4.8-4.8-4.8H164.4z"/>
	<path class="st2" d="M358.3,239.7H212.2c-2.8,0-5.1-2.3-5.1-5.1c0-2.8,2.3-5.1,5.1-5.1c0,0,0,0,0,0h146.1c2.8,0,5.1,2.3,5.1,5.1
		C363.3,237.5,361.1,239.7,358.3,239.7C358.3,239.7,358.3,239.7,358.3,239.7z"/>
	<path class="st2" d="M358.3,274.6H212.2c-2.8,0-5.1-2.3-5.1-5.1c0-2.8,2.3-5.1,5.1-5.1c0,0,0,0,0,0h146.1c2.8,0,5.1,2.3,5.1,5.1
		C363.3,272.3,361.1,274.6,358.3,274.6L358.3,274.6z"/>
	<path class="st2" d="M358.3,310.4H212.2c-2.8,0-5.1-2.3-5.1-5.1c0-2.8,2.3-5.1,5.1-5.1h146.1c2.8,0,5.1,2.3,5.1,5.1
		C363.3,308.1,361.1,310.4,358.3,310.4C358.3,310.4,358.3,310.4,358.3,310.4z"/>
	<circle class="st3" cx="406.8" cy="198.5" r="29"/>
	<path class="st1" d="M402.9,213.6c-1,0-2-0.5-2.6-1.3l-7.9-10.6c-1.1-1.4-0.8-3.4,0.6-4.5c1.4-1.1,3.4-0.8,4.5,0.6l0,0l5.2,6.9
		l13.3-19.9c1-1.5,3-1.9,4.5-0.9c1.5,1,1.9,3,0.9,4.5l-15.8,23.7C405,213.1,404,213.6,402.9,213.6
		C402.9,213.6,402.9,213.6,402.9,213.6z"/>
	<polygon class="st4" points="482,582.1 470.2,586 449.3,542.4 466.7,536.5 	"/>
	<path class="st5" d="M488.8,592.5l-38.1,10.2l-0.2-0.5c-1.3-4-1-5.6,0.8-9.4c1.8-3.7,5.1-6.5,9-7.8l0,0l5.2-7.6l14.7,0.9l3.3-1.1
		L488.8,592.5z"/>
	<polygon class="st4" points="511.1,593.2 498.7,593.2 492.8,545.2 511.1,545.2 	"/>
	<path class="st5" d="M514.3,602.7l-40.1,0v-0.5c0-4.2,1.6-5.5,4.6-8.5c2.9-2.9,6.9-4.6,11-4.6h0l7.3-5.6l13.7,5.6l3.5,0
		L514.3,602.7z"/>
	<path class="st4" d="M416.4,208.5c1,4.9,5.7,8.1,10.7,7.2c0.5-0.1,1-0.3,1.5-0.4l14.4,15l11.2-6.5l-20.6-20.9
		c-2.1-4.6-7.6-6.6-12.1-4.4C417.7,200.2,415.6,204.4,416.4,208.5z"/>
	<polygon class="st6" points="509.4,284 515.9,277.3 478.4,242.6 440.7,208.9 430.3,223.7 469.8,260.5 	"/>
	<path class="st5" d="M486.4,511.6c0-8.4,0.2-14.4,0.3-19.3c0.4-14.1,0.5-17.9-4.9-42.3l-1.4-6.2l-8.2,24.6c-2.6,7.8-4,16-4,24.3
		l12.6,75.7h-25.8l-18.9-81.9l0-25c-3.5-3.6-3.5-9.3,0-12.8l6.3-37.5l6.4-50.6h69.6c0,0,12.3,25.5,0.1,50.7l0,100.3l-6.3,69.4h-19.5
		L486.4,511.6z"/>
	<path class="st6" d="M514.1,366.7l-65.1-5.4l-0.3,0l5.2-93.5c0.6-12,8.5-22.5,19.9-26.3v-6.5c0-3.4,2.7-6.1,6.1-6.1h9.5
		c2.3,0,4.4,1.3,5.5,3.4l4.7,9.3l17.6,14.1c8.7,7,1.7,76.6,1.3,80.3l4.3,21.3c0.9,4.4-2,8.6-6.3,9.5c-0.5,0.1-1,0.2-1.6,0.2
		C514.6,366.7,514.4,366.7,514.1,366.7z"/>
	<path class="st4" d="M445.2,391.4c3.9-3.2,4.5-8.9,1.3-12.8c-0.3-0.4-0.7-0.8-1.1-1.1l6.5-19.7l-11-6.9l-8.7,28
		c-3,4-2.2,9.8,1.8,12.8C437.3,394.2,441.9,394.1,445.2,391.4L445.2,391.4z"/>
	<polygon class="st6" points="467.9,257.2 458.9,254.2 446,312 434.1,369.4 452,372.1 465.9,311 	"/>
	
		<ellipse transform="matrix(0.1602 -0.9871 0.9871 0.1602 202.381 640.6441)" class="st4" cx="477.7" cy="201.4" rx="21.4" ry="21.4"/>
	<path class="st5" d="M448.9,190.9c0.2-2,0.8-4,1.7-5.8c1,2.2,4.1,2.6,6.3,1.5c2.1-1.1,3.6-3.1,5.1-5c4-4.9,9.6-8.8,15.8-9.5
		c6.3-0.7,13.2,2.4,15.6,8.3c1.1-1.5,3.3-1.6,4.9-0.8c1.6,1,2.8,2.4,3.5,4.1c3.2,6.5,3.5,14.1,0.9,20.9c-2.6,6.7-9.2,15.7-15.9,18.2
		c-4.1,1.5-8.2-0.4-12.6,0c0.2-4.7,1.1-10.6,1.4-15.3c0.1-2.6,0.1-5.5-1.6-7.4c-2.1-1.9-5.3-1.9-7.2,0.2c-0.2,0.2-0.4,0.5-0.6,0.7
		c-0.2-1.5-0.7-2.9-1.5-4.2c-0.8-1.3-2.2-2-3.8-1.9c-1.8,0.3-2.9,2.2-4.6,2.9c-1.9,0.8-4.2,0.3-5.6-1.3
		C449.4,195,448.7,193,448.9,190.9z"/>
	<polygon class="st7" points="480.5,310.7 455.3,360.9 474.2,360.9 	"/>
	<path class="st8" d="M617,604.2c0,0.6-0.4,1-0.9,1c0,0,0,0,0,0H168.1c-0.5,0-0.9-0.5-0.9-1s0.4-1,0.9-1h447.9
		C616.6,603.2,617,603.7,617,604.2C617,604.2,617,604.2,617,604.2z"/>
</g>
</svg>
