<?xml version="1.0" encoding="utf-8"?>
<!-- Generator: Adobe Illustrator 25.0.0, SVG Export Plug-In . SVG Version: 6.00 Build 0)  -->
<svg version="1.1" id="Layer_1" xmlns="http://www.w3.org/2000/svg" xmlns:xlink="http://www.w3.org/1999/xlink" x="0px" y="0px"
	 viewBox="0 0 500 406" style="enable-background:new 0 0 500 406;" xml:space="preserve">
<style type="text/css">
	.st0{fill:#EBEBEB;}
	.st1{fill:#F0F0F0;}
	.st2{fill:#E0E0E0;}
	.st3{fill:#F5F5F5;}
	.st4{fill:#6EAD38;}
	.st5{opacity:0.4;}
	.st6{fill:#FFFFFF;}
	.st7{fill:#263238;}
	.st8{opacity:0.6;}
	.st9{opacity:0.9;fill:#FFFFFF;enable-background:new    ;}
	.st10{opacity:0.1;enable-background:new    ;}
	.st11{opacity:0.2;}
	.st12{opacity:0.4;fill:#FFFFFF;enable-background:new    ;}
	.st13{fill:#243B53;}
	.st14{opacity:0.7;fill:#FFFFFF;enable-background:new    ;}
	.st15{fill:#EBB376;}
	.st16{opacity:0.2;enable-background:new    ;}
	.st17{fill:#2B3840;}
	.st18{opacity:0.6;fill:#FFFFFF;enable-background:new    ;}
	.st19{fill:#D58745;}
</style>
<g id="freepik--background-complete--inject-3">
	<rect y="345.5" class="st0" width="500" height="0.2"/>
	<rect x="416.8" y="361.6" class="st0" width="33.1" height="0.2"/>
	<rect x="322.5" y="364.3" class="st0" width="8.7" height="0.2"/>
	<rect x="396.6" y="352.3" class="st0" width="19.2" height="0.2"/>
	<rect x="52.5" y="354" class="st0" width="43.2" height="0.2"/>
	<rect x="104.6" y="354" class="st0" width="6.3" height="0.2"/>
	<rect x="131.5" y="358.2" class="st0" width="93.7" height="0.2"/>
	<path class="st0" d="M237,300.9H43.9c-3.1,0-5.7-2.6-5.7-5.7V23.8c0-3.1,2.6-5.7,5.7-5.7H237c3.2,0,5.7,2.6,5.7,5.7l0,0v271.4
		C242.7,298.4,240.2,300.9,237,300.9z M43.9,18.3c-3,0-5.5,2.4-5.5,5.5v271.4c0,3,2.4,5.5,5.5,5.5H237c3,0,5.5-2.4,5.5-5.5V23.8
		c0-3-2.4-5.5-5.5-5.5H43.9z"/>
	<path class="st0" d="M453.3,300.9H260.2c-3.2,0-5.7-2.6-5.7-5.7V23.8c0-3.1,2.6-5.7,5.7-5.7h193.1c3.1,0,5.7,2.5,5.7,5.7v271.4
		C459,298.3,456.5,300.9,453.3,300.9z M260.2,18.3c-3,0-5.5,2.4-5.5,5.5v271.4c0,3,2.4,5.5,5.5,5.5h193.1c3,0,5.5-2.4,5.5-5.5V23.8
		c0-3-2.4-5.5-5.5-5.5H260.2z"/>
	<path class="st1" d="M156.5,255.6l-13.9,11.6l19.7,28.7l15.8-8.8c8.4,8.1,18.4,14.6,29.2,19l-1.6,17.9l34.3,6.3l4.9-17.3
		c11.7-0.3,23.2-2.7,34-7.3l11.6,13.9l28.7-19.7l-8.8-15.7c8.1-8.4,14.6-18.3,19-29.2l17.9,1.6l6.3-34.2l-17.3-4.9
		c-0.3-11.7-2.8-23.2-7.3-34l13.9-11.6l-19.7-28.7l-15.8,8.8c-8.4-8.1-18.3-14.6-29.2-19l1.6-17.9l-34.2-6.3l-4.9,17.3
		c-11.7,0.3-23.2,2.8-34,7.3l-11.7-14l-28.7,19.7l8.8,15.8c-8.1,8.4-14.6,18.4-19,29.2l-17.9-1.6l-6.3,34.2l17.3,4.9
		C149.5,233.3,152,244.8,156.5,255.6z M196.4,210.9c4.7-25.6,29.3-42.5,54.9-37.8s42.5,29.3,37.8,54.9s-29.3,42.5-54.9,37.8l0,0
		C208.6,261.1,191.7,236.5,196.4,210.9L196.4,210.9z"/>
	<path class="st1" d="M387.4,237.9l10.8,2l1.5-5.5c3.7-0.1,7.3-0.9,10.8-2.3l3.7,4.4l9.1-6.2l-2.8-5c2.6-2.7,4.6-5.8,6-9.2l5.7,0.5
		l2-10.8l-5.5-1.6c-0.1-3.7-0.9-7.4-2.3-10.8l4.4-3.7l-6.2-9.1l-5,2.8c-2.7-2.6-5.8-4.6-9.2-6l0.5-5.7l-10.8-2l-1.5,5.5
		c-3.7,0.1-7.3,0.9-10.8,2.3l-3.6-4.4l-9.1,6.2l2.8,5c-2.6,2.7-4.6,5.8-6,9.2l-5.7-0.5l-2,10.8l5.5,1.6c0.1,3.7,0.9,7.4,2.3,10.8
		l-4.4,3.7l6.2,9.1l5-2.8c2.7,2.6,5.8,4.6,9.2,6L387.4,237.9z M384.4,202.2c1.5-8.1,9.3-13.4,17.4-12s13.4,9.3,12,17.4
		c-1.5,8.1-9.3,13.4-17.4,12l0,0C388.3,218,382.9,210.3,384.4,202.2L384.4,202.2z"/>
	<path class="st1" d="M83.7,268.8l8.2,1.5l1.2-4.2c2.8-0.1,5.6-0.7,8.2-1.8l2.8,3.3l6.9-4.8l-2.1-3.8c2-2,3.5-4.4,4.6-7l4.3,0.4
		l1.5-8.2l-4.2-1.1c-0.1-2.8-0.7-5.6-1.8-8.2l3.3-2.8l-4.8-6.9l-3.8,2.1c-2-2-4.4-3.5-7-4.6l0.4-4.3l-8.2-1.5l-1.2,4.2
		c-2.8,0.1-5.6,0.7-8.2,1.8l-2.8-3.3l-6.9,4.8l2.1,3.8c-2,2-3.5,4.4-4.6,7l-4.3-0.4l-1.5,8.2l4.1,1.2c0.1,2.8,0.7,5.6,1.8,8.2
		l-3.3,2.8l4.8,6.9L77,260c2,1.9,4.4,3.5,7,4.6L83.7,268.8z M81.5,241.5c1.1-6.2,7.1-10.2,13.2-9.1c6.2,1.1,10.2,7.1,9.1,13.2
		c-1.1,6.2-7.1,10.2-13.2,9.1C84.4,253.6,80.3,247.7,81.5,241.5z"/>
	<path class="st1" d="M230.9,85.1l6.2,1.2l0.9-3.2c2.1,0,4.2-0.5,6.2-1.3l2.1,2.5l5.2-3.6l-1.6-2.9c1.5-1.5,2.7-3.3,3.5-5.3l3.3,0.3
		l1.1-6.2l-3.1-0.9c-0.1-2.1-0.5-4.2-1.3-6.2l2.5-2.1l-3.6-5.2l-2.9,1.6c-1.5-1.5-3.3-2.7-5.3-3.5l0.3-3.3l-6.2-1.2l-0.9,3.2
		c-2.1,0-4.2,0.5-6.2,1.3l-2.1-2.5l-5.2,3.6l1.6,2.9c-1.5,1.5-2.7,3.3-3.5,5.3l-3.3-0.3l-1.1,6.2l3.1,0.9c0.1,2.1,0.5,4.2,1.3,6.2
		l-2.5,2.1L223,80l2.9-1.6c1.5,1.5,3.3,2.7,5.3,3.5L230.9,85.1z M229.2,64.5c0.9-4.7,5.3-7.7,10-6.9c4.7,0.9,7.7,5.3,6.9,10
		c-0.9,4.7-5.3,7.7-10,6.9C231.4,73.6,228.3,69.2,229.2,64.5L229.2,64.5z"/>
	<path class="st1" d="M334.5,135.3l4.2,0.8l0.6-2.1c1.4,0,2.8-0.3,4.1-0.9l1.4,1.7l3.5-2.4l-1.1-1.9c1-1,1.8-2.2,2.3-3.5l2.2,0.2
		l0.8-4.2l-2.1-0.6c0-1.4-0.3-2.8-0.9-4.1l1.7-1.4l-2.4-3.5l-1.9,1.1c-1-1-2.2-1.8-3.5-2.3l0.2-2.2l-4.2-0.8l-0.6,2.1
		c-1.4,0-2.8,0.3-4.1,0.9l-1.4-1.7l-3.5,2.4l1.1,1.9c-1,1-1.8,2.2-2.3,3.6l-2.2-0.2l-0.8,4.1l2.1,0.6c0,1.4,0.3,2.8,0.9,4.1
		l-1.7,1.4l2.4,3.5l1.9-1.1c1,1,2.2,1.8,3.5,2.3L334.5,135.3z M333.4,121.6c0.6-3.1,3.6-5.2,6.7-4.6s5.2,3.6,4.6,6.7
		s-3.6,5.2-6.7,4.6l0,0C334.8,127.6,332.8,124.7,333.4,121.6z"/>
	<path class="st1" d="M142.8,85.2L147,86l0.6-2.1c1.4,0,2.8-0.3,4.1-0.9l1.4,1.7l3.5-2.4l-1.1-1.9c1-1,1.8-2.2,2.3-3.6L160,77
		l0.8-4.2l-2.1-0.6c0-1.4-0.3-2.8-0.9-4.1l1.7-1.4l-2.4-3.5l-1.9,1.1c-1-1-2.2-1.8-3.5-2.3l0.2-2.2l-4.2-0.8l-0.6,2.1
		c-1.4,0-2.8,0.3-4.1,0.9l-1.4-1.7l-3.4,2.4l1.1,1.9c-1,1-1.8,2.2-2.3,3.6l-2.2-0.2l-0.8,4.2l2.1,0.6c0,1.4,0.3,2.8,0.9,4.1
		l-1.7,1.4l2.4,3.5l1.9-1.1c1,1,2.2,1.8,3.5,2.3L142.8,85.2z M141.6,71.4c0.6-3.1,3.6-5.2,6.7-4.6s5.2,3.6,4.6,6.7
		c-0.6,3.1-3.6,5.2-6.7,4.6l0,0C143.1,77.5,141,74.5,141.6,71.4z"/>
	<path class="st1" d="M327.6,306.9c0.1,2.5,0.6,4.9,1.5,7.2l-2.9,2.5l4.2,6.1l3.3-1.9c1.8,1.7,3.9,3.1,6.2,4l-0.3,3.8l7.3,1.3l1-3.7
		c2.5-0.1,4.9-0.6,7.2-1.5l2.5,2.9l6.1-4.2l-1.8-3.3c1.7-1.8,3.1-3.9,4-6.2l3.8,0.3l1.4-7.2l-3.7-1c-0.1-2.5-0.6-4.9-1.5-7.2
		l2.9-2.5l-4.2-6.1l-3.4,1.9c-1.8-1.7-3.9-3.1-6.2-4l0.3-3.8L348,283l-1,3.7c-2.5,0.1-4.9,0.6-7.2,1.5l-2.5-2.9l-6.1,4.2l1.9,3.3
		c-1.7,1.8-3.1,3.9-4,6.2l-3.8-0.3l-1.4,7.2L327.6,306.9z M337.6,304.6c1-5.4,6.2-9,11.6-8s9,6.2,8,11.6s-6.2,9-11.6,8l0,0
		C340.2,315.2,336.6,310,337.6,304.6L337.6,304.6z"/>
	<path class="st2" d="M390.4,263.8l-11.2,4.1l11.2,4.1v4.1l-16-6.1v-4.4l16-6.1V263.8z"/>
	<path class="st2" d="M402.5,251.4h4.7L396.1,283h-4.7L402.5,251.4z"/>
	<path class="st2" d="M423.7,265.7v4.4l-16,6.1V272l11.2-4.1l-11.2-4.1v-4.2L423.7,265.7z"/>
	<path class="st2" d="M112.8,317.2c1.6,0.5,2.3,1.5,2.3,3.9v5.6c-0.2,1.3,0.7,2.4,2,2.6c0.2,0,0.4,0,0.6,0h0.6v4.2h-2
		c-4.4,0-6.6-2.2-6.6-6.2V321c0-1.1-0.6-1.6-1.5-1.6H107v-4.2h1.2c0.9,0,1.5-0.5,1.5-1.6v-6.4c0-4,2.2-6.2,6.6-6.2h2v4.2h-0.6
		c-1.3-0.1-2.4,0.7-2.5,2c0,0.2,0,0.4,0,0.6v5.6C115.2,315.7,114.4,316.7,112.8,317.2z"/>
	<path class="st2" d="M140.6,315.1v4.2h-1.1c-0.8-0.1-1.5,0.5-1.6,1.3c0,0.1,0,0.2,0,0.3v6.3c0,4-2.2,6.2-6.6,6.2h-2v-4.2h0.6
		c1.3,0.1,2.4-0.7,2.5-2c0-0.2,0-0.4,0-0.6V321c0-2.4,0.7-3.4,2.3-3.9c-1.6-0.5-2.3-1.5-2.3-3.9v-5.6c0.2-1.3-0.7-2.4-1.9-2.6
		c-0.2,0-0.4,0-0.6,0h-0.6v-4.2h2c4.4,0,6.6,2.2,6.6,6.2v6.3c-0.1,0.8,0.4,1.5,1.2,1.6c0.1,0,0.2,0,0.3,0L140.6,315.1z"/>
	<path class="st2" d="M98.5,114.2c0-6.9,5.3-11.8,12.3-11.8c3.6-0.2,7,1.3,9.3,4l-3.4,3.1c-1.4-1.7-3.5-2.7-5.7-2.7
		c-4-0.1-7.4,3-7.5,7s3,7.4,7,7.5c0.2,0,0.4,0,0.5,0c2.2,0,4.3-1,5.7-2.7l3.4,3.1c-2.3,2.7-5.8,4.2-9.4,4.1
		C103.8,126,98.5,121.1,98.5,114.2z"/>
	<path class="st2" d="M138.3,116.2h-5.6v5.5h-4.2v-5.5h-5.6v-4h5.6v-5.5h4.2v5.5h5.6V116.2z"/>
	<path class="st2" d="M158,116.2h-5.6v5.5h-4.2v-5.5h-5.6v-4h5.6v-5.5h4.2v5.5h5.6V116.2z"/>
	<path class="st2" d="M182.1,228.7l3.3-3.9c1.4,1.9,2.9,2.8,4.8,2.8c2.4,0,3.6-1.4,3.6-4.2v-12.2h-9v-4.8h14.9V223
		c0,6.3-3.2,9.4-9.2,9.4C187.2,232.6,184.1,231.2,182.1,228.7z"/>
	<path class="st2" d="M203.1,230.2l1.9-4.1c2.1,1.2,4.4,1.9,6.8,1.9c2.6,0,3.6-0.7,3.6-1.8c0-3.2-11.9,0.1-11.9-7.8
		c0-3.7,3.4-6.4,9.1-6.4c2.6-0.1,5.2,0.5,7.6,1.7l-1.9,4.1c-1.7-1-3.7-1.5-5.7-1.5c-2.6,0-3.6,0.8-3.6,1.8c0,3.4,11.9,0.1,11.9,7.9
		c0,3.7-3.4,6.2-9.3,6.2C208.6,232.4,205.7,231.6,203.1,230.2z"/>
</g>
<g id="freepik--Shadow--inject-3">
	<ellipse id="freepik--path--inject-3" class="st3" cx="250" cy="379.4" rx="193.9" ry="11.3"/>
</g>
<g id="freepik--program-icons--inject-3">
	<path class="st4" d="M296.1,56.1h29.8c1.3,0,2.3,1,2.3,2.3v29.8c0,1.3-1,2.3-2.3,2.3h-29.8c-1.3,0-2.3-1-2.3-2.3V58.4
		C293.8,57.1,294.8,56.1,296.1,56.1z"/>
	<g class="st5">
		<path class="st6" d="M296.1,56.1h29.8c1.3,0,2.3,1,2.3,2.3v29.8c0,1.3-1,2.3-2.3,2.3h-29.8c-1.3,0-2.3-1-2.3-2.3V58.4
			C293.8,57.1,294.8,56.1,296.1,56.1z"/>
	</g>
	<path class="st6" d="M306.4,71.5l-6,2.2l6,2.2v2.3l-8.5-3.2v-2.3l8.5-3.2V71.5z"/>
	<path class="st6" d="M312.8,64.9h2.5l-5.9,16.9h-2.5L312.8,64.9z"/>
	<path class="st6" d="M324.1,72.5v2.3l-8.5,3.3v-2.2l6-2.2l-6-2.2v-2.2L324.1,72.5z"/>
	<path class="st7" d="M301.4,96.8v8.3h-1.9v-3.4h-3.8v3.4h-1.9v-8.4h1.9v3.4h3.8v-3.3H301.4z"/>
	<path class="st7" d="M305.1,98.3h-2.7v-1.6h7.3v1.6H307v6.8h-1.9V98.3z"/>
	<path class="st7" d="M318.4,105.1v-5l-2.5,4.1H315l-2.5-4v4.9h-1.8v-8.4h1.6l3.1,5.2l3.1-5.2h1.6v8.4H318.4z"/>
	<path class="st7" d="M322.2,96.8h1.9v6.8h4.2v1.6h-6.1V96.8z"/>
	<g class="st8">
		<path class="st6" d="M301.4,96.8v8.3h-1.9v-3.4h-3.8v3.4h-1.9v-8.4h1.9v3.4h3.8v-3.3H301.4z"/>
		<path class="st6" d="M305.1,98.3h-2.7v-1.6h7.3v1.6H307v6.8h-1.9V98.3z"/>
		<path class="st6" d="M318.4,105.1v-5l-2.5,4.1H315l-2.5-4v4.9h-1.8v-8.4h1.6l3.1,5.2l3.1-5.2h1.6v8.4H318.4z"/>
		<path class="st6" d="M322.2,96.8h1.9v6.8h4.2v1.6h-6.1V96.8z"/>
	</g>
	<path class="st4" d="M369.6,74.4h29.8c1.3,0,2.3,1,2.3,2.3v29.8c0,1.3-1,2.3-2.3,2.3h-29.8c-1.3,0-2.3-1-2.3-2.3V76.7
		C367.3,75.5,368.4,74.4,369.6,74.4z"/>
	<g class="st5">
		<path class="st6" d="M369.6,74.4h29.8c1.3,0,2.3,1,2.3,2.3v29.8c0,1.3-1,2.3-2.3,2.3h-29.8c-1.3,0-2.3-1-2.3-2.3V76.7
			C367.3,75.5,368.4,74.4,369.6,74.4z"/>
	</g>
	<path class="st6" d="M378.9,91.6c0.8,0.2,1.2,0.8,1.2,2v2.9c-0.1,0.6,0.4,1.2,1,1.3c0.1,0,0.2,0,0.3,0h0.3v2.2h-1
		c-2.2,0-3.4-1.1-3.4-3.2v-3.2c0.1-0.4-0.2-0.8-0.6-0.8c-0.1,0-0.1,0-0.2,0H376v-2.2h0.6c0.4,0,0.8-0.3,0.8-0.7c0-0.1,0-0.1,0-0.2
		v-3.2c0-2.1,1.1-3.2,3.4-3.2h1v2.2h-0.3c-0.6-0.1-1.2,0.4-1.3,1c0,0.1,0,0.2,0,0.3v2.9C380.1,90.9,379.7,91.4,378.9,91.6z"/>
	<path class="st6" d="M393.1,90.5v2.2h-0.6c-0.4,0-0.8,0.3-0.8,0.7c0,0.1,0,0.1,0,0.2v3.2c0,2.1-1.1,3.2-3.4,3.2h-1v-2.2h0.3
		c0.6,0.1,1.2-0.4,1.3-1c0-0.1,0-0.2,0-0.3v-2.9c0-1.2,0.4-1.8,1.2-2c-0.8-0.2-1.2-0.8-1.2-2v-2.9c0.1-0.6-0.4-1.2-1-1.3
		c-0.1,0-0.2,0-0.3,0h-0.3v-2.2h1c2.2,0,3.4,1.2,3.4,3.2v3.2c-0.1,0.4,0.2,0.8,0.6,0.8c0.1,0,0.1,0,0.2,0L393.1,90.5z"/>
	<path class="st7" d="M373,119.4c0.1-2.5,2.3-4.5,4.8-4.3c1.2,0.1,2.3,0.6,3.2,1.5l-1.2,1.1c-0.5-0.6-1.3-1-2.1-1
		c-1.5-0.1-2.7,1-2.8,2.5c-0.1,1.5,1,2.7,2.5,2.8c0.1,0,0.2,0,0.3,0c0.8,0,1.6-0.4,2.1-1l1.2,1.1c-1.7,1.9-4.6,2-6.5,0.4
		C373.6,121.7,373.1,120.6,373,119.4L373,119.4z"/>
	<path class="st7" d="M381.5,122.8l0.6-1.5c0.8,0.6,1.8,0.9,2.8,0.9c1.1,0,1.6-0.4,1.6-0.9c0-1.6-4.9-0.5-4.9-3.6
		c0-1.4,1.1-2.6,3.5-2.6c1,0,2,0.2,2.9,0.7l-0.6,1.5c-0.7-0.4-1.5-0.6-2.3-0.6c-1.1,0-1.6,0.4-1.6,0.9c0,1.5,4.9,0.5,4.9,3.5
		c0,1.4-1.2,2.6-3.5,2.6C383.7,123.7,382.5,123.4,381.5,122.8z"/>
	<path class="st7" d="M389.1,122.8l0.7-1.5c0.8,0.6,1.8,0.9,2.8,0.9c1.1,0,1.6-0.4,1.6-0.9c0-1.6-4.9-0.5-4.9-3.6
		c0-1.4,1.1-2.6,3.5-2.6c1,0,2,0.2,2.9,0.7l-0.6,1.5c-0.7-0.4-1.5-0.6-2.3-0.6c-1.1,0-1.6,0.4-1.6,0.9c0,1.5,4.9,0.5,4.9,3.5
		c0,1.4-1.2,2.6-3.5,2.6C391.3,123.7,390.1,123.4,389.1,122.8z"/>
	<g class="st8">
		<path class="st6" d="M373,119.4c0.1-2.5,2.3-4.5,4.8-4.3c1.2,0.1,2.3,0.6,3.2,1.5l-1.2,1.1c-0.5-0.6-1.3-1-2.1-1
			c-1.5-0.1-2.7,1-2.8,2.5c-0.1,1.5,1,2.7,2.5,2.8c0.1,0,0.2,0,0.3,0c0.8,0,1.6-0.4,2.1-1l1.2,1.1c-1.7,1.9-4.6,2-6.5,0.4
			C373.6,121.7,373.1,120.6,373,119.4L373,119.4z"/>
		<path class="st6" d="M381.5,122.8l0.6-1.5c0.8,0.6,1.8,0.9,2.8,0.9c1.1,0,1.6-0.4,1.6-0.9c0-1.6-4.9-0.5-4.9-3.6
			c0-1.4,1.1-2.6,3.5-2.6c1,0,2,0.2,2.9,0.7l-0.6,1.5c-0.7-0.4-1.5-0.6-2.3-0.6c-1.1,0-1.6,0.4-1.6,0.9c0,1.5,4.9,0.5,4.9,3.5
			c0,1.4-1.2,2.6-3.5,2.6C383.7,123.7,382.5,123.4,381.5,122.8z"/>
		<path class="st6" d="M389.1,122.8l0.7-1.5c0.8,0.6,1.8,0.9,2.8,0.9c1.1,0,1.6-0.4,1.6-0.9c0-1.6-4.9-0.5-4.9-3.6
			c0-1.4,1.1-2.6,3.5-2.6c1,0,2,0.2,2.9,0.7l-0.6,1.5c-0.7-0.4-1.5-0.6-2.3-0.6c-1.1,0-1.6,0.4-1.6,0.9c0,1.5,4.9,0.5,4.9,3.5
			c0,1.4-1.2,2.6-3.5,2.6C391.3,123.7,390.1,123.4,389.1,122.8z"/>
	</g>
</g>
<g id="freepik--Tabs--inject-3">
	<rect x="148.6" y="71.1" width="122.5" height="88.7"/>
	<rect x="148.6" y="71.1" class="st9" width="122.5" height="88.7"/>
	<rect x="148.6" y="71.1" class="st10" width="17.1" height="88.7"/>
	<rect x="148.6" y="71.1" class="st4" width="122.5" height="8.3"/>
	<g class="st11">
		<path d="M197.7,91.9h-22.3c-0.6,0-1-0.4-1-1s0.4-1,1-1h22.3c0.6,0,1,0.4,1,1C198.7,91.4,198.3,91.9,197.7,91.9L197.7,91.9z"/>
		<path d="M247,91.9h-43.4c-0.6,0-1-0.4-1-1s0.4-1,1-1H247c0.6,0,1,0.4,1,1C248,91.4,247.6,91.9,247,91.9z"/>
		<path d="M236.7,98.4h-58.3c-0.6,0-1-0.4-1-1s0.4-1,1-1h58.3c0.6,0,1,0.4,1,1S237.2,98.4,236.7,98.4z"/>
		<path d="M212.9,104.9h-37.5c-0.6,0-1-0.4-1-1s0.4-1,1-1h37.5c0.6,0,1,0.4,1,1S213.5,104.9,212.9,104.9z"/>
		<path d="M247,104.9h-26.9c-0.6,0-1-0.4-1-1s0.4-1,1-1H247c0.6,0,1,0.4,1,1S247.6,104.9,247,104.9z"/>
		<path d="M196.1,111.5h-20.7c-0.6,0-1-0.4-1-1s0.4-1,1-1h20.7c0.6,0,1,0.4,1,1S196.7,111.5,196.1,111.5L196.1,111.5z"/>
		<path d="M235.5,111.5h-32.6c-0.6,0-1-0.4-1-1s0.4-1,1-1h32.6c0.6,0,1,0.4,1,1S236,111.5,235.5,111.5z"/>
		<path d="M206.3,118h-27.9c-0.6,0-1-0.4-1-1s0.4-1,1-1h27.9c0.6,0,1,0.4,1,1S206.8,118,206.3,118z"/>
		<path d="M209.8,124.5h-31.4c-0.6,0-1-0.4-1-1s0.4-1,1-1h31.4c0.6,0,1,0.4,1,1S210.3,124.5,209.8,124.5z"/>
		<path d="M247,124.5h-32c-0.6,0-1-0.4-1-1s0.4-1,1-1h32c0.6,0,1,0.4,1,1S247.6,124.5,247,124.5z"/>
		<path d="M193.4,131.1h-18c-0.6,0-1-0.4-1-1s0.4-1,1-1h18c0.6,0,1,0.4,1,1S193.9,131.1,193.4,131.1z"/>
		<path d="M247,131.1h-47.5c-0.6,0-1-0.4-1-1s0.4-1,1-1H247c0.6,0,1,0.4,1,1S247.6,131.1,247,131.1z"/>
		<path d="M209.6,137.6h-31.2c-0.6,0-1-0.4-1-1s0.4-1,1-1h31.2c0.6,0,1,0.4,1,1S210.1,137.6,209.6,137.6L209.6,137.6z"/>
		<path d="M234.1,137.6h-20.2c-0.6,0-1-0.4-1-1s0.4-1,1-1h20.2c0.6,0,1,0.4,1,1S234.7,137.6,234.1,137.6L234.1,137.6z"/>
		<path d="M214.3,144.1h-35.9c-0.6,0-1-0.4-1-1s0.4-1,1-1h35.9c0.6,0,1,0.4,1,1S214.8,144.1,214.3,144.1z"/>
	</g>
	<circle class="st12" cx="265.8" cy="75.3" r="1.7"/>
	<circle class="st12" cx="259.8" cy="75.3" r="1.7"/>
	<circle class="st12" cx="253.8" cy="75.3" r="1.7"/>
	<g class="st11">
		<path d="M157.4,91.9L157.4,91.9c-0.6,0-1-0.4-1-1s0.4-1,1-1s1,0.4,1,1C158.4,91.4,157.9,91.9,157.4,91.9z"/>
		<path d="M157.4,98.4L157.4,98.4c-0.6,0-1-0.4-1-1s0.4-1,1-1s1,0.4,1,1S157.9,98.4,157.4,98.4z"/>
		<path d="M157.4,104.9L157.4,104.9c-0.6,0-1-0.4-1-1s0.4-1,1-1s1,0.4,1,1S157.9,104.9,157.4,104.9z"/>
		<path d="M157.4,111.5L157.4,111.5c-0.6,0-1-0.4-1-1s0.4-1,1-1s1,0.4,1,1S157.9,111.5,157.4,111.5z"/>
		<path d="M157.4,118L157.4,118c-0.6,0-1-0.4-1-1s0.4-1,1-1s1,0.4,1,1S157.9,118,157.4,118z"/>
		<path d="M157.4,124.5L157.4,124.5c-0.6,0-1-0.4-1-1s0.4-1,1-1s1,0.4,1,1S157.9,124.5,157.4,124.5z"/>
		<path d="M157.4,131.1L157.4,131.1c-0.6,0-1-0.4-1-1s0.4-1,1-1s1,0.4,1,1S157.9,131.1,157.4,131.1z"/>
		<path d="M157.4,137.6L157.4,137.6c-0.6,0-1-0.4-1-1s0.4-1,1-1s1,0.4,1,1S157.9,137.6,157.4,137.6z"/>
		<path d="M157.4,144.1L157.4,144.1c-0.6,0-1-0.4-1-1s0.4-1,1-1s1,0.4,1,1S157.9,144.1,157.4,144.1z"/>
	</g>
	<rect x="221.5" y="143.5" class="st7" width="160.5" height="102.8"/>
	<rect x="221.5" y="143.5" class="st9" width="160.5" height="102.8"/>
	<rect x="221.5" y="143.5" class="st10" width="25" height="102.8"/>
	<rect x="221.5" y="143.5" class="st4" width="160.5" height="8.3"/>
	<path class="st6" d="M232.8,160.8l-2.7,1l2.7,1v1l-3.8-1.4v-1l3.8-1.4V160.8z"/>
	<path class="st6" d="M235.7,157.9h1.1l-2.6,7.5h-1.1L235.7,157.9z"/>
	<path class="st6" d="M240.8,161.3v1l-3.8,1.4v-1l2.7-1l-2.7-1v-1L240.8,161.3z"/>
	<g class="st11">
		<path d="M240.2,172.3h-10.9c-0.6,0-1-0.4-1-1s0.4-1,1-1h10.9c0.6,0,1,0.4,1,1S240.8,172.3,240.2,172.3z"/>
		<path d="M240.2,178.8h-10.9c-0.6,0-1-0.4-1-1s0.4-1,1-1h10.9c0.6,0,1,0.4,1,1S240.8,178.8,240.2,178.8z"/>
		<path d="M240.2,185.3h-10.9c-0.6,0-1-0.4-1-1s0.4-1,1-1h10.9c0.6,0,1,0.4,1,1S240.8,185.3,240.2,185.3z"/>
		<path d="M240.2,191.8h-10.9c-0.6,0-1-0.4-1-1s0.4-1,1-1h10.9c0.6,0,1,0.4,1,1S240.8,191.8,240.2,191.8z"/>
		<path d="M240.2,198.4h-10.9c-0.6,0-1-0.4-1-1s0.4-1,1-1h10.9c0.6,0,1,0.4,1,1S240.8,198.4,240.2,198.4z"/>
		<path d="M240.2,204.9h-10.9c-0.6,0-1-0.4-1-1s0.4-1,1-1h10.9c0.6,0,1,0.4,1,1S240.8,204.9,240.2,204.9z"/>
		<path d="M240.2,211.4h-10.9c-0.6,0-1-0.4-1-1s0.4-1,1-1h10.9c0.6,0,1,0.4,1,1S240.8,211.4,240.2,211.4z"/>
		<path d="M240.2,218h-10.9c-0.6,0-1-0.4-1-1s0.4-1,1-1h10.9c0.6,0,1,0.4,1,1S240.8,218,240.2,218z"/>
		<path d="M240.2,224.5h-10.9c-0.6,0-1-0.4-1-1s0.4-1,1-1h10.9c0.6,0,1,0.4,1,1S240.8,224.5,240.2,224.5z"/>
	</g>
	<path class="st4" d="M271.6,172.3h-22.3c-0.6,0-1-0.4-1-1s0.4-1,1-1h22.3c0.6,0,1,0.4,1,1S272.2,172.3,271.6,172.3z"/>
	<path class="st13" d="M335.7,172.3h-58.1c-0.6,0-1-0.4-1-1s0.4-1,1-1h58.1c0.6,0,1,0.4,1,1S336.3,172.3,335.7,172.3z"/>
	<g class="st11">
		<path class="st7" d="M362.3,172.3h-16.9c-0.6,0-1-0.4-1-1s0.4-1,1-1h16.9c0.6,0,1,0.4,1,1S362.8,172.3,362.3,172.3z"/>
	</g>
	<g class="st11">
		<path class="st7" d="M310.6,178.8h-58.3c-0.6,0-1-0.4-1-1s0.4-1,1-1h58.3c0.6,0,1,0.4,1,1S311.2,178.8,310.6,178.8z"/>
	</g>
	<path class="st4" d="M370.3,178.8H316c-0.6,0-1-0.4-1-1s0.4-1,1-1h54.3c0.6,0,1,0.4,1,1S370.9,178.8,370.3,178.8L370.3,178.8z"/>
	<path class="st13" d="M286.9,185.3h-34.5c-0.6,0-1-0.4-1-1s0.4-1,1-1h34.5c0.6,0,1,0.4,1,1S287.4,185.3,286.9,185.3z"/>
	<path class="st4" d="M328,185.3h-34c-0.6,0-1-0.4-1-1s0.4-1,1-1h34c0.6,0,1,0.4,1,1S328.6,185.3,328,185.3z"/>
	<path class="st13" d="M370.3,185.3h-36.7c-0.6,0-1-0.4-1-1s0.4-1,1-1h36.7c0.6,0,1,0.4,1,1S370.8,185.3,370.3,185.3z"/>
	<path class="st13" d="M290.1,191.8h-20.7c-0.6,0-1-0.4-1-1s0.4-1,1-1h20.7c0.6,0,1,0.4,1,1S290.6,191.8,290.1,191.8L290.1,191.8z"
		/>
	<path class="st13" d="M319.4,191.8h-22.6c-0.6,0-1-0.4-1-1s0.4-1,1-1h22.6c0.6,0,1,0.4,1,1S320,191.8,319.4,191.8z"/>
	<g class="st11">
		<path class="st7" d="M361.3,191.8h-36.7c-0.6,0-1-0.4-1-1s0.4-1,1-1h36.7c0.6,0,1,0.4,1,1S361.8,191.8,361.3,191.8z"/>
	</g>
	<g class="st11">
		<path class="st7" d="M280.2,198.4h-27.9c-0.6,0-1-0.4-1-1s0.4-1,1-1h27.9c0.6,0,1,0.4,1,1S280.8,198.4,280.2,198.4L280.2,198.4z"
			/>
	</g>
	<path class="st4" d="M283.7,204.9h-31.4c-0.6,0-1-0.4-1-1s0.4-1,1-1h31.4c0.6,0,1,0.4,1,1S284.3,204.9,283.7,204.9z"/>
	<path class="st13" d="M336.1,204.9h-47.3c-0.6,0-1-0.4-1-1s0.4-1,1-1h47.3c0.6,0,1,0.4,1,1S336.7,204.9,336.1,204.9L336.1,204.9z"
		/>
	<path class="st13" d="M370.3,204.9h-28.4c-0.6,0-1-0.4-1-1s0.4-1,1-1h28.4c0.6,0,1,0.4,1,1S370.8,204.9,370.3,204.9z"/>
	<g class="st11">
		<path class="st7" d="M280.3,211.4h-18c-0.6,0-1-0.4-1-1s0.4-1,1-1h18c0.6,0,1,0.4,1,1S280.9,211.4,280.3,211.4z"/>
	</g>
	<g class="st11">
		<path class="st7" d="M320.9,211.4h-34.5c-0.6,0-1-0.4-1-1s0.4-1,1-1h34.5c0.6,0,1,0.4,1,1S321.5,211.4,320.9,211.4z"/>
	</g>
	<path class="st13" d="M361.3,211.4h-33.6c-0.6,0-1-0.4-1-1s0.4-1,1-1h33.6c0.6,0,1,0.4,1,1S361.8,211.4,361.3,211.4z"/>
	<path class="st13" d="M293.5,218h-21.2c-0.6,0-1-0.4-1-1s0.4-1,1-1h21.2c0.6,0,1,0.4,1,1S294.1,218,293.5,218z"/>
	<g class="st11">
		<path class="st7" d="M318,218h-20.2c-0.6,0-1-0.4-1-1s0.4-1,1-1H318c0.6,0,1,0.4,1,1S318.6,218,318,218L318,218z"/>
	</g>
	<path class="st4" d="M361.3,218h-36.9c-0.6,0-1-0.4-1-1s0.4-1,1-1h36.9c0.6,0,1,0.4,1,1S361.8,218,361.3,218z"/>
	<g class="st11">
		<path class="st7" d="M298.2,224.5h-25.9c-0.6,0-1-0.4-1-1s0.4-1,1-1h25.9c0.6,0,1,0.4,1,1S298.8,224.5,298.2,224.5z"/>
	</g>
	<path class="st12" d="M375,147.7c0,0.9,0.8,1.7,1.7,1.7s1.7-0.8,1.7-1.7s-0.8-1.7-1.7-1.7l0,0C375.8,145.9,375,146.7,375,147.7
		L375,147.7z"/>
	<circle class="st12" cx="370.8" cy="147.7" r="1.7"/>
	<circle class="st12" cx="364.7" cy="147.7" r="1.7"/>
</g>
<g id="freepik--speech-bubble--inject-3">
	<path class="st4" d="M113.3,149.5H84.5c-4.9,0-8.8,3.9-8.8,8.8l0,0v25c0,4.9,3.9,8.8,8.8,8.9l0,0h20.4l6,7.9v-7.9h2.3
		c4.9,0,8.8-4,8.8-8.9l0,0v-25C122.1,153.5,118.1,149.5,113.3,149.5z"/>
	<path class="st14" d="M113.3,149.5H84.5c-4.9,0-8.8,3.9-8.8,8.8l0,0v25c0,4.9,3.9,8.8,8.8,8.9l0,0h20.4l6,7.9v-7.9h2.3
		c4.9,0,8.8-4,8.8-8.9l0,0v-25C122.1,153.5,118.1,149.5,113.3,149.5z"/>
	<path class="st6" d="M97.4,177.1c-0.4,0-0.7-0.2-1-0.5l-5.6-6.5c-0.5-0.6-0.4-1.4,0.2-1.8c0.6-0.5,1.4-0.4,1.8,0.1l4.6,5.4l7.6-8.9
		c0.5-0.5,1.3-0.6,1.9-0.1c0.5,0.5,0.6,1.2,0.1,1.8l-8.6,10.1C98.1,177,97.8,177.1,97.4,177.1z"/>
	<ellipse class="st4" cx="98.9" cy="170.8" rx="14.3" ry="14.3"/>
</g>
<g id="freepik--Character--inject-3">
	<path class="st15" d="M204.7,326.6l21.5-1l-2.1,18.7c0,0-14.9,2.8-21.6-7.8L204.7,326.6z"/>
	<polygon class="st15" points="240,332.1 235.1,345.6 224.1,344.2 226.2,325.5 	"/>
	<path class="st4" d="M184.1,356.9c8.2-4.3,15.6-9.8,22.1-16.4l-1.5-13.9c-20.3,3-32,7.3-32,7.3s7.5-27,0.6-36.8l-18.9,3.4
		c0,0-20.1,41.7-6.6,56.4H184.1z"/>
	<path class="st14" d="M184.1,356.9c8.2-4.3,15.6-9.8,22.1-16.4l-1.5-13.9c-19.6,2.9-31.2,7-32,7.3c0.2-1,7.4-27.1,0.6-36.8
		l-18.9,3.4c-3.9,8.4-7,17.1-9.2,26.1c-2.7,11.4-3.5,23.7,2.6,30.3H184.1z"/>
	<path class="st16" d="M168.6,356.9c6.7-42.3,0.8-53,0.8-53l-24,22.7c-2.7,11.4-3.5,23.7,2.6,30.3H168.6z"/>
	<path class="st4" d="M164.4,356.9c4.5-21.4,9.6-54.8,9-59.8c-0.8-7.2-40.2-38.3-74.4-15.7c-7,4.6-10.6,54.3-11.8,75.5H164.4z"/>
	<path class="st14" d="M164.4,356.9c4.5-21.4,9.6-54.8,9-59.8c-0.8-7.2-40.2-38.2-74.4-15.7c-2.5,1.7-4.6,9.3-6.3,19.4
		c-2.3,13.7-3.9,31.9-4.8,45.7c-0.3,3.9-0.5,7.4-0.7,10.4H164.4z"/>
	<path class="st17" d="M147.5,189.7c-11.9-4.8-39.8,12.4-42.2,43.1s13.1,22.2,13.1,22.2s2.8,11.7,14.1,8.1c0,0,9.4,10.6,18.1,6.3
		c0,0,10.8,11.3,16.6,5.3c0,0,6.3,7.2,12.1,1.8s22.3-61.2-3.6-74.1S147.5,189.7,147.5,189.7z"/>
	<path class="st7" d="M147.5,315.1l-1.1-0.1c1.3-14.8-1.9-21.3-2-21.4l1-0.5C145.6,293.4,148.9,299.9,147.5,315.1z"/>
	<path class="st7" d="M152.9,315.2c-7.9-18.5,1-22.8,1.4-23l0.5,1l-0.2-0.5l0.2,0.5c-0.1,0-8.2,4.1-0.8,21.5L152.9,315.2z"/>
	<path class="st4" d="M145.2,296.7c0,0-15.1-12-38.7-18.8l-7.6,3.5c0,0-12.7-15.7,8.4-20.8s49.8,9,57,21.1s-12.5,16-12.5,16
		S150.1,295.3,145.2,296.7z"/>
	<path class="st18" d="M145.2,296.7c0,0-15.1-12-38.7-18.8l-7.6,3.5c0,0-12.7-15.7,8.4-20.8s49.8,9,57,21.1s-12.5,16-12.5,16
		S150.1,295.3,145.2,296.7z"/>
	<path class="st6" d="M154.4,315c0,0.6-0.4,1-1,1s-1-0.4-1-1s0.4-1,1-1S154.4,314.5,154.4,315z"/>
	<path class="st6" d="M147.9,315c0,0.6-0.4,1-1,1s-1-0.4-1-1s0.4-1,1-1S147.9,314.5,147.9,315z"/>
	<path class="st15" d="M137.2,240.1c-0.9,10.7-4.2,29.8-12.9,34c0,0,9.8,2,25,21.3c8.7-6.1,5.4-10.2,5.4-10.2
		c-10.1-6.6-7.5-14.9-3.4-22L137.2,240.1z"/>
	<path class="st16" d="M142.9,249.5l8.3,13.7c-1,1.7-1.8,3.4-2.5,5.2c-4-2.1-8.4-8.9-7.6-13.6C141.4,253,142,251.2,142.9,249.5z"/>
	<path class="st15" d="M136,217.4c-2.8,16.9-4.3,23.9,1.9,34.8c9.4,16.3,30.2,17.1,37.8,1.7c6.9-13.9,10.3-39.1-4.1-50.3
		C157.5,192.6,138.8,200.6,136,217.4z"/>
	<path class="st17" d="M170.5,194.2c10.9,6.1,21.3,25,5.8,20.3c-2.4,4.6-10.7,0.4-15.6-5.1c-0.8,3.8-9.8,7.6-16.4,1.7
		c3.2,4.6-2.2,16.2-7.9,14.2s-18.3-4.6-7.1-22.5S158.9,187.7,170.5,194.2z"/>
	<path class="st19" d="M166.6,233.3c0,0,1,6.7,2.9,10.3c-2.1,1.2-5-0.4-5-0.4L166.6,233.3z"/>
	<path class="st7" d="M155.6,246.2c0.7,0.3,1.4,0.6,2.2,0.8c0.2,0.1,0.4-0.1,0.5-0.3l0,0c0.1-0.2-0.1-0.5-0.3-0.5
		c-3.5-1-6.3-3.5-7.8-6.8c-0.1-0.2-0.3-0.3-0.5-0.3l0,0c-0.2,0.1-0.3,0.3-0.2,0.5C150.7,242.6,152.9,244.9,155.6,246.2z"/>
	<path class="st15" d="M127.5,229.5c0.9,3.5,3.2,6.5,6.4,8.3c4.1,2.2,7-1.6,6.7-6.3c-0.3-4.3-2.8-10.6-7.3-10.9
		S126.3,225.1,127.5,229.5z"/>
	<path class="st7" d="M154.5,217.9c0.2,0.1,0.4,0.1,0.6,0c1.8-1,4-1,5.8-0.1c0.4,0.2,0.8,0.1,1-0.2c0,0,0,0,0-0.1
		c0.2-0.4,0.1-0.9-0.3-1.2c-2.3-1.3-5.1-1.3-7.4,0c-0.4,0.2-0.5,0.7-0.3,1.1C154.1,217.6,154.3,217.8,154.5,217.9z"/>
	<path class="st7" d="M181.4,224.5c0.2,0.1,0.4,0.1,0.6,0.1c0.4-0.1,0.7-0.6,0.5-1l0,0c-0.7-2.6-2.7-4.8-5.2-5.8
		c-0.4-0.1-0.8,0.1-1,0.5v0.1c-0.1,0.4,0.1,0.9,0.6,1.1c2,0.8,3.5,2.5,4.1,4.6C181,224.2,181.2,224.4,181.4,224.5z"/>
	<path class="st7" d="M159.9,228.9c-0.5,1.3-1.6,2.1-2.5,1.8s-1.2-1.7-0.7-3s1.6-2.1,2.5-1.8S160.4,227.6,159.9,228.9z"/>
	<path class="st7" d="M158.8,225.8l3.3-0.1C162.1,225.8,159.7,227.7,158.8,225.8z"/>
	<path class="st7" d="M176.7,234.2c-0.5,1.3-1.6,2.1-2.5,1.8s-1.2-1.7-0.7-3s1.6-2.1,2.5-1.8S177.2,232.9,176.7,234.2z"/>
	<path class="st7" d="M175.6,231.2l3.3-0.1C178.9,231.1,176.5,233,175.6,231.2z"/>
	<path class="st7" d="M158.3,238.4c-1,0-2.1-0.2-3-0.6c-2-0.9-3.5-2.7-4.1-4.8c-1.3-4.7,0.9-9.7,5.3-11.9c3.7-1.8,8.2-0.3,10,3.3
		c0.2,0.4,0.4,0.9,0.5,1.4c0.7,2.3,0.5,4.7-0.5,6.9l0,0c-0.9,2.2-2.6,4-4.8,5C160.6,238.1,159.5,238.4,158.3,238.4z M159.9,221.4
		c-1,0-2,0.3-2.9,0.7c-3.9,1.9-5.8,6.3-4.7,10.5c0.9,3.4,4.3,5.4,7.7,4.5c0.4-0.1,0.8-0.3,1.2-0.5c1.9-0.9,3.4-2.5,4.2-4.4l0.5,0.2
		l-0.5-0.2c0.9-1.9,1-4.1,0.4-6.1c-0.5-1.8-1.8-3.3-3.5-4.1C161.6,221.6,160.8,221.4,159.9,221.4L159.9,221.4z"/>
	<path class="st7" d="M174.9,243.5c-1,0-2.1-0.2-3-0.6c-2-0.9-3.5-2.7-4.1-4.8c-1.3-4.7,0.9-9.7,5.3-11.9c3.7-1.8,8.1-0.4,10,3.3
		c0.2,0.4,0.4,0.9,0.5,1.4c0.7,2.3,0.5,4.7-0.5,6.9l0,0C181.7,241.1,178.5,243.3,174.9,243.5z M176.5,226.5c-1,0-2,0.2-2.9,0.7
		c-1.9,0.9-3.4,2.5-4.2,4.4c-0.9,1.9-1,4.1-0.4,6.1c0.5,1.8,1.8,3.3,3.5,4.1c3.5,1.6,7.8-0.5,9.7-4.5l0,0c0.9-1.9,1-4.1,0.4-6.1
		c-0.5-1.8-1.8-3.3-3.5-4.1C178.2,226.7,177.4,226.5,176.5,226.5L176.5,226.5z"/>
	<path class="st7" d="M167.8,233c0-0.1-0.2-0.3-0.3-0.3c-0.4-0.1-0.9,0-1.3,0.2l-0.5-1c0.7-0.3,1.5-0.4,2.2-0.2c0.5,0.2,0.8,0.5,1,1
		L167.8,233z"/>
	
		<rect x="146.5" y="217.9" transform="matrix(0.2983 -0.9545 0.9545 0.2983 -111.5557 298.2511)" class="st7" width="1.1" height="14.2"/>
	<path class="st16" d="M137.3,327.6c0,0-26.3,20.2-49.4,19c0.9-13.7,2.5-32,4.8-45.7c2.4-2.6,3.9-4.2,3.9-4.2l14,10.5l-3.4,4.3
		c0,0,21.2-1.1,28.6,0L137.3,327.6z"/>
	<path class="st15" d="M140,311.4l21.1-4.3l0.8,18.8c0,0-14.3,5.1-22.5-4.4L140,311.4z"/>
	<polygon class="st15" points="175.7,311.5 172.9,325.6 161.8,325.9 161.1,307.1 	"/>
	<polygon class="st4" points="140,311.4 141,325.9 135.8,328.3 133.6,311.4 	"/>
	<polygon class="st18" points="140,311.4 141,325.9 135.8,328.3 133.6,311.4 	"/>
	<path class="st4" d="M106.6,277.9c-5.7,1-10.8,4-14.4,8.4c-6.3,7.5-28.7,29.6-23.8,47.7s52.8,4.6,67.5-5.7l-2.2-16.8l-33.2,2.4
		l10.2-6.7C117.6,287.6,106.6,277.9,106.6,277.9z"/>
	<path class="st14" d="M106.6,277.9c-5.7,1-10.8,4-14.4,8.4c-6.3,7.5-28.7,29.6-23.8,47.7s52.8,4.6,67.5-5.7l-2.2-16.8l-33.2,2.4
		l10.2-6.7C117.6,287.6,106.6,277.9,106.6,277.9z"/>
	<polygon class="st4" points="202.6,326.9 208.6,325.9 208.6,342.1 203.8,342.8 	"/>
	<polygon class="st18" points="202.6,326.9 208.6,325.9 208.6,342.1 203.8,342.8 	"/>
	<path class="st4" d="M190.4,341.9c0-0.9,0-1.8,0.1-2.6l0.2-1.3l-1.3,0.8l-0.8,0.5c-0.3,0.1-0.5,0.2-0.8,0.3c-0.5,0.1-0.9,0.1-1.4,0
		c-0.4-0.2-0.8-0.4-1.1-0.8s-0.6-0.9-0.8-1.4l-1.1-3.2l-0.8,3.3c-0.1,0.3-0.1,0.7-0.2,1s-0.2,0.6-0.3,0.9c-0.2,0.5-0.5,0.9-0.9,1.3
		c-0.5,0.2-1,0.3-1.5,0.1c-0.6-0.2-1.2-0.4-1.8-0.8l-1.7-1.1l0.7,1.8c0.3,0.8,0.5,1.5,0.7,2.3c0.1,0.4,0.1,0.8,0.2,1.2
		c0,0.4,0,0.8-0.3,1.2c0.4-0.3,0.6-0.7,0.7-1.1c0.1-0.4,0.2-0.9,0.2-1.3c0-0.3,0-0.7,0-1c0.3,0.2,0.6,0.3,0.9,0.4
		c0.9,0.4,2,0.4,2.9-0.1c0.8-0.5,1.5-1.2,1.9-2.1V340c1.1,1.3,2.9,1.7,4.4,1c0.3-0.1,0.6-0.3,0.9-0.5v0.1c0.1,0.5,0.2,0.9,0.3,1.4
		s0.3,0.9,0.5,1.4c0.2,0.4,0.5,0.8,0.9,1.1c-0.2-0.4-0.4-0.8-0.4-1.3C190.4,342.8,190.4,342.3,190.4,341.9z"/>
	<path class="st4" d="M226.1,319.3c-0.8,0.1-1.6,0-2.3-0.2c-0.8-0.2-1.5-0.6-2.2-1c-0.6-0.5-1.2-1.1-1.6-1.7
		c-0.5-0.7-0.8-1.4-1.1-2.1l-0.7-2l-1.1,1.8c-0.5,0.7-1.1,1.4-1.7,2c-0.5,0.5-1.2,0.9-2,0.9h-0.2l-0.3-0.1c-0.2,0-0.4-0.1-0.6-0.1
		c-0.4-0.1-0.8-0.3-1.2-0.5c-0.8-0.4-1.5-1-2.1-1.6l-1.7-1.7l0.4,2.3c0.2,1.2,0.3,2.5,0.2,3.7c0,0.6-0.1,1.2-0.4,1.7
		c-0.2,0.5-0.7,0.8-1.2,0.7h-0.4l0.1,0.4c0.3,0.8,0.6,1.5,0.9,2.2c-0.1-0.7-0.2-1.3-0.3-2h0.2c0.2,0,0.4,0,0.6-0.1
		c0.2-0.1,0.4-0.2,0.5-0.3c0.1-0.1,0.3-0.3,0.4-0.4c0.4-0.6,0.6-1.3,0.8-2c0.1-0.7,0.2-1.3,0.2-2l0,0c0.3,0.3,0.7,0.5,1,0.7
		c0.5,0.3,1,0.5,1.5,0.7s1.1,0.4,1.7,0.4c1.2,0,2.4-0.5,3.3-1.3c0.4-0.3,0.8-0.7,1.1-1.1c0.2,0.3,0.4,0.7,0.6,1
		c0.6,0.8,1.3,1.5,2.2,2.1c0.9,0.5,1.8,0.9,2.8,1.1c0.6,0.1,1.3,0.2,1.9,0.1c-0.1,0.2-0.2,0.4-0.2,0.6c-0.2,0.6-0.3,1.2-0.4,1.8
		c-0.1,0.6-0.1,1.2-0.1,1.8c0,0.6,0.2,1.2,0.5,1.7c-0.2-0.5-0.2-1.1-0.1-1.7c0.1-0.6,0.2-1.1,0.4-1.6c0.4-1,0.9-2,1.4-3l0.6-1.1
		L226.1,319.3z"/>
</g>
<g id="freepik--Table--inject-3">
	<path class="st4" d="M426.2,378.4H75.5c-2.5,0-4.4-2-4.4-4.4l0,0v-10.8l0,0h359.6l0,0V374C430.6,376.5,428.7,378.4,426.2,378.4
		L426.2,378.4z"/>
	<rect x="71.1" y="363.2" class="st16" width="359.6" height="7.6"/>
	<path class="st4" d="M63.5,365.2h374.7c2.4,0,4.3-1.9,4.3-4.3l0,0c0-2.4-1.9-4.3-4.3-4.3H63.5c-2.4,0-4.3,1.9-4.3,4.3l0,0
		C59.2,363.3,61.1,365.2,63.5,365.2z"/>
</g>
<g id="freepik--device-2--inject-3">
	<path class="st7" d="M412.8,304.1l-10.9,49.6c-0.4,1.6-1.9,2.8-3.5,2.8h-59.8c-1.3,0-2.4-1.1-2.3-2.5c0-0.2,0-0.4,0.1-0.6
		l10.9-49.2c0.5-1.5,1.9-2.6,3.5-2.4h59.8C412.1,301.8,413.1,302.5,412.8,304.1z"/>
	<path class="st12" d="M412.8,304.1l-10.9,49.6c-0.4,1.6-1.9,2.8-3.5,2.8h-57.7c-1.3,0-2.4-1.1-2.4-2.5c0-0.2,0-0.4,0.1-0.7
		l10.9-49.2c0.5-1.6,1.9-2.6,3.5-2.4h57.7C412.1,301.8,413.1,302.5,412.8,304.1z"/>
	<path class="st4" d="M403.3,355l10.9-49.4c0.4-1.6-0.6-2.4-2.3-2.4h-57.7c-1.6-0.1-3.1,0.9-3.5,2.4l-11,49.9L403.3,355z"/>
	<path class="st12" d="M414.1,305.7l-5.7,26.1l-5.1,23.3l-34.1,0.4l-29.6,0.3l11-49.9c0.5-1.5,1.9-2.6,3.5-2.4h57.8
		C413.5,303.3,414.5,304.1,414.1,305.7z"/>
	<path class="st16" d="M408.4,331.7l-5.1,23.3l-34.1,0.4h-28.3l4.6-21.3c0.3-1.4,1.5-2.3,2.9-2.3L408.4,331.7z"/>
	<path class="st4" d="M409.4,335c-0.5-1.5-1.9-2.6-3.5-2.4h-57.7c-1.6,0-2.6,0.7-2.3,2.3l4.4,19.9h-9.8c-0.5,0-0.9,0.4-0.9,0.9
		s0.4,0.9,0.9,0.9l0,0h71.1c1.2,0,2.1-1,2.1-2.1c0-0.1,0-0.3-0.1-0.4L409.4,335z"/>
	<path class="st12" d="M409.4,335c-0.5-1.5-1.9-2.6-3.5-2.4h-57.7c-1.6,0-2.6,0.7-2.3,2.3l4.4,19.9h-9.8c-0.5,0-0.9,0.4-0.9,0.9
		s0.4,0.9,0.9,0.9l0,0h71.1c1.2,0,2.1-1,2.1-2.1c0-0.1,0-0.3-0.1-0.4L409.4,335z"/>
	<polygon points="338.8,347 335.4,347 335,348.8 338.2,348.8 	"/>
	<path d="M317.6,356.8H308c-0.3,0-0.6-0.2-0.6-0.5l0,0c0-0.3,0.3-0.6,0.6-0.6l0,0h9.6c3.2,0,6.2-1.4,8.2-4c2.2-2.8,5.6-4.4,9.1-4.4
		h1.7c0.3,0,0.6,0.3,0.6,0.6c0,0.3-0.3,0.6-0.6,0.6l0,0H335c-3.2,0-6.2,1.4-8.2,4C324.5,355.2,321.1,356.8,317.6,356.8z"/>
</g>
<g id="freepik--device-1--inject-3">
	<path class="st7" d="M156.8,349.8v4.2c0,1.9,2.3,2.7,4.1,2.7h146.6c1.9,0,4.1-0.8,4.1-2.7v-4.2H156.8z"/>
	<path class="st12" d="M156.8,349.8v4.2c0,1.9,2.3,2.7,4.1,2.7h146.6c1.9,0,4.1-0.8,4.1-2.7v-4.2H156.8z"/>
	<path class="st16" d="M206.7,349.8v4.2c0,1.9,2.2,2.7,4.1,2.7h96.7c1.9,0,4.1-0.8,4.1-2.7v-4.2H206.7z"/>
	<path class="st7" d="M336.1,270.4l-17.5,79.1c-0.6,2.6-3,4.5-5.7,4.5h-95.3c-2.5,0-4.2-2.4-3.6-5l17.4-78.5
		c0.6-2.6,3.1-3.9,5.7-3.9h95.3C335.1,266.7,336.7,267.9,336.1,270.4z"/>
	<path class="st12" d="M336.1,270.4l-17.5,79.1c-0.6,2.6-3,4.5-5.7,4.5h-92.1c-2.6,0-4.2-2.4-3.6-5l17.4-78.5
		c0.6-2.6,3.1-3.9,5.7-3.9h92.1C335.1,266.7,336.7,267.9,336.1,270.4z"/>
	<path class="st16" d="M289.1,310.7L289.1,310.7c0,6.8-7.3,12.3-12.6,12.3s-8.5-5.5-7-12.3s6.8-12,12-12.3c-1.5,6.8,1.7,12.3,7,12.3
		C288.7,310.7,288.9,310.7,289.1,310.7z"/>
</g>
</svg>
